<svg width="36" height="36" viewBox="0 0 36 36" fill="none" xmlns="http://www.w3.org/2000/svg">
<g clip-path="url(#clip0_1057_258)">
<path d="M15 21L21 15" stroke="#333333" stroke-width="1.2" stroke-linecap="round" stroke-linejoin="round"/>
<path d="M15.5 16C15.7761 16 16 15.7761 16 15.5C16 15.2239 15.7761 15 15.5 15C15.2239 15 15 15.2239 15 15.5C15 15.7761 15.2239 16 15.5 16Z" fill="#333333" stroke="#333333" stroke-width="1.2" stroke-linecap="round" stroke-linejoin="round"/>
<path d="M20.5 21C20.7761 21 21 20.7761 21 20.5C21 20.2239 20.7761 20 20.5 20C20.2239 20 20 20.2239 20 20.5C20 20.7761 20.2239 21 20.5 21Z" fill="#333333" stroke="#333333" stroke-width="1.2" stroke-linecap="round" stroke-linejoin="round"/>
<path d="M10.9966 13.2005C10.9966 12.617 11.2283 12.0574 11.6409 11.6448C12.0535 11.2322 12.6131 11.0005 13.1966 11.0005H14.1966C14.7775 11.0001 15.3346 10.7701 15.7466 10.3605L16.4466 9.66046C16.651 9.45486 16.8941 9.2917 17.1618 9.18037C17.4295 9.06903 17.7166 9.01172 18.0066 9.01172C18.2965 9.01172 18.5836 9.06903 18.8513 9.18037C19.119 9.2917 19.3621 9.45486 19.5666 9.66046L20.2666 10.3605C20.6785 10.7701 21.2357 11.0001 21.8166 11.0005H22.8166C23.4 11.0005 23.9596 11.2322 24.3722 11.6448C24.7848 12.0574 25.0166 12.617 25.0166 13.2005V14.2005C25.0169 14.7814 25.247 15.3386 25.6566 15.7505L26.3566 16.4505C26.5622 16.6549 26.7253 16.898 26.8366 17.1657C26.948 17.4334 27.0053 17.7205 27.0053 18.0105C27.0053 18.3004 26.948 18.5875 26.8366 18.8552C26.7253 19.1229 26.5622 19.366 26.3566 19.5705L25.6566 20.2705C25.247 20.6824 25.0169 21.2396 25.0166 21.8205V22.8205C25.0166 23.4039 24.7848 23.9635 24.3722 24.3761C23.9596 24.7887 23.4 25.0205 22.8166 25.0205H21.8166C21.2357 25.0208 20.6785 25.2509 20.2666 25.6605L19.5666 26.3605C19.3621 26.5661 19.119 26.7292 18.8513 26.8406C18.5836 26.9519 18.2965 27.0092 18.0066 27.0092C17.7166 27.0092 17.4295 26.9519 17.1618 26.8406C16.8941 26.7292 16.651 26.5661 16.4466 26.3605L15.7466 25.6605C15.3346 25.2509 14.7775 25.0208 14.1966 25.0205H13.1966C12.6131 25.0205 12.0535 24.7887 11.6409 24.3761C11.2283 23.9635 10.9966 23.4039 10.9966 22.8205V21.8205C10.9962 21.2396 10.7662 20.6824 10.3566 20.2705L9.65655 19.5705C9.45096 19.366 9.2878 19.1229 9.17646 18.8552C9.06513 18.5875 9.00781 18.3004 9.00781 18.0105C9.00781 17.7205 9.06513 17.4334 9.17646 17.1657C9.2878 16.898 9.45096 16.6549 9.65655 16.4505L10.3566 15.7505C10.7662 15.3386 10.9962 14.7814 10.9966 14.2005V13.2005Z" stroke="#333333" stroke-width="1.2" stroke-linecap="round" stroke-linejoin="round"/>
</g>
<defs>
<clipPath id="clip0_1057_258">
<rect width="24" height="24" fill="white" transform="translate(6 6)"/>
</clipPath>
</defs>
</svg>
